# xmcd
#
# Track frame offsets:
#   150
#   20137
#   36515
#   125234
#   146032
#   167867
#   185672
#   204695
#   217322
#   231630
#   255551
#   270176
#   294805
#   332106
#
# Disc length: 4605 seconds
#
# Revision: 0
# Processed by: cddbd v1.5.1PL2 Copyright (c) Steve Scherf et al.
# Submitted via: GXTranscoder 2.24.2965
#
DISCID=eb11fb0e
DTITLE=Less than Jake - 500 Miles
DYEAR=1900
DGENRE=UnClassifiable
TTITLE0=
TTITLE1=500 Miles
TTITLE2=
TTITLE3=
TTITLE4=
TTITLE5=
TTITLE6=
TTITLE7=
TTITLE8=
TTITLE9=
TTITLE10=
TTITLE11=
TTITLE12=
TTITLE13=
EXTD=
EXTT0=
EXTT1=
EXTT2=
EXTT3=
EXTT4=
EXTT5=
EXTT6=
EXTT7=
EXTT8=
EXTT9=
EXTT10=
EXTT11=
EXTT12=
EXTT13=
PLAYORDER=
